<!DOCTYPE svg PUBLIC "-//W3C//DTD SVG 1.1//EN" "http://www.w3.org/Graphics/SVG/1.1/DTD/svg11.dtd">
<!-- Uploaded to: SVG Repo, www.svgrepo.com, Transformed by: SVG Repo Mixer Tools -->
<svg fill="#008040" version="1.1" id="Capa_1" xmlns="http://www.w3.org/2000/svg" xmlns:xlink="http://www.w3.org/1999/xlink" width="100px" height="100px" viewBox="0 0 967.00 967.00" xml:space="preserve" stroke="#008040" stroke-width="0.009670000000000002" transform="matrix(-1, 0, 0, 1, 0, 0)rotate(-45)">
<g id="SVGRepo_bgCarrier" stroke-width="0"/>
<g id="SVGRepo_tracerCarrier" stroke-linecap="round" stroke-linejoin="round" stroke="#000000" stroke-width="19.34"> <g> <g> <path d="M128.3,454.3H25c-13.8,0-25,11.2-25,25v8.401c0,13.799,11.2,25,25,25h103.3V454.3z"/> <g> <path d="M937,344.5h-16c-16.6,0-30,13.4-30,30v13.8h-74v190.401h74V592.5c0,16.6,13.4,30,30,30h16c16.6,0,30-13.4,30-30v-218 C967,357.9,953.5,344.5,937,344.5z"/> <path d="M193.3,622.5H705.9v43.1c0,16.602,13.399,30,30,30h16c16.6,0,30-13.398,30-30v-86.898V388.3v-86.9c0-16.6-13.4-30-30-30 h-16c-16.601,0-30,13.4-30,30v43.1H629.8c-16.6,0-30,13.4-30,30v39.7c0,16.6-13.399,30-30,30h-3.6c-16.601,0-30-13.4-30-30v-39.7 c0-16.6-13.4-30-30-30H506.1c-16.6,0-30,13.4-30,30v39.7c0,16.6-13.399,30-30,30h-3.6c-16.6,0-30-13.4-30-30v-39.7 c0-16.6-13.4-30-30-30h-0.1c-16.601,0-30,13.4-30,30v39.7c0,16.6-13.4,30-30,30H318.8c-16.6,0-30-13.4-30-30v-39.7 c0-16.6-13.4-30-30-30h-65.4c-16.6,0-30,13.4-30,30v79.8v58.401V592.5C163.3,609,176.7,622.5,193.3,622.5z"/> </g> </g> </g> </g>
<g id="SVGRepo_iconCarrier"> <g> <g> <path d="M128.3,454.3H25c-13.8,0-25,11.2-25,25v8.401c0,13.799,11.2,25,25,25h103.3V454.3z"/> <g> <path d="M937,344.5h-16c-16.6,0-30,13.4-30,30v13.8h-74v190.401h74V592.5c0,16.6,13.4,30,30,30h16c16.6,0,30-13.4,30-30v-218 C967,357.9,953.5,344.5,937,344.5z"/> <path d="M193.3,622.5H705.9v43.1c0,16.602,13.399,30,30,30h16c16.6,0,30-13.398,30-30v-86.898V388.3v-86.9c0-16.6-13.4-30-30-30 h-16c-16.601,0-30,13.4-30,30v43.1H629.8c-16.6,0-30,13.4-30,30v39.7c0,16.6-13.399,30-30,30h-3.6c-16.601,0-30-13.4-30-30v-39.7 c0-16.6-13.4-30-30-30H506.1c-16.6,0-30,13.4-30,30v39.7c0,16.6-13.399,30-30,30h-3.6c-16.6,0-30-13.4-30-30v-39.7 c0-16.6-13.4-30-30-30h-0.1c-16.601,0-30,13.4-30,30v39.7c0,16.6-13.4,30-30,30H318.8c-16.6,0-30-13.4-30-30v-39.7 c0-16.6-13.4-30-30-30h-65.4c-16.6,0-30,13.4-30,30v79.8v58.401V592.5C163.3,609,176.7,622.5,193.3,622.5z"/> </g> </g> </g> </g>
</svg>